<svg width="24" height="27" viewBox="0 0 24 27" fill="none" xmlns="http://www.w3.org/2000/svg">
<mask id="mask0_4245_4952" style="mask-type:luminance" maskUnits="userSpaceOnUse" x="0" y="0" width="24" height="27">
<path d="M23 12C23 19.3597 14.9509 24.3244 12.6233 25.6048C12.4329 25.7114 12.2183 25.7674 12 25.7674C11.7817 25.7674 11.5671 25.7114 11.3767 25.6048C9.04907 24.3244 1 19.3597 1 12C1 5.4 6.32987 1 12 1C17.8667 1 23 5.4 23 12Z" stroke="#C0C0C0" stroke-opacity="0.25" stroke-width="2"/>
<path d="M6.5524 13.1521L11.6227 18.2223C11.8001 18.3998 11.8896 18.4893 11.9996 18.4893C12.1096 18.4893 12.1991 18.4013 12.3765 18.2223L17.4468 13.1521C18.5439 12.055 18.714 10.3361 17.8531 9.04539C16.5111 7.03459 13.5205 7.13725 12.3208 9.23605L12.114 9.59979C12.1024 9.61989 12.0858 9.63659 12.0657 9.64821C12.0456 9.65982 12.0228 9.66593 11.9996 9.66593C11.9764 9.66593 11.9536 9.65982 11.9335 9.64821C11.9134 9.63659 11.8968 9.61989 11.8852 9.59979L11.6784 9.23752C10.4787 7.13725 7.48813 7.03459 6.14613 9.04685C5.2852 10.3375 5.4568 12.055 6.5524 13.1521Z" stroke="white" stroke-width="2"/>
</mask>
<g mask="url(#mask0_4245_4952)">
<path d="M-5.59961 -4.13281H29.6004V31.0672H-5.59961V-4.13281Z" fill="#FFBA0A"/>
</g>
</svg>
